<svg width="72" height="66" viewBox="0 0 72 66" fill="none" xmlns="http://www.w3.org/2000/svg">
<path d="M57.4964 0.750001C57.9185 0.749693 58.3347 0.848803 58.7113 1.0393C59.088 1.2298 59.4145 1.50633 59.6643 1.8465L59.8614 2.15825L71.5538 23.7586L71.69 24.0918L71.733 24.2352L71.8047 24.6007L71.8262 24.9375C71.8263 25.1797 71.7938 25.4207 71.7294 25.6542L71.561 26.1021L71.4248 26.3493C71.3456 26.4784 71.2557 26.6007 71.1561 26.7148L71.3711 26.4353L71.2815 26.5607L38.1357 64.2037C37.8604 64.5697 37.4932 64.8566 37.0714 65.035L36.7202 65.1532L36.4407 65.2142L36 65.25L35.6417 65.2285L35.2188 65.1353C34.9999 65.0725 34.7902 64.9809 34.5953 64.863L34.5631 64.8379C34.393 64.7334 34.2365 64.6082 34.0972 64.4652L0.808073 26.6754L0.714907 26.5607L0.571573 26.3493C0.368543 26.0215 0.238959 25.6535 0.19174 25.2708L0.166656 24.9375L0.177407 24.701L0.22399 24.3821C0.246316 24.2777 0.275036 24.1748 0.30999 24.0739L0.388823 23.8625L0.489156 23.6582L12.135 2.15825C12.3358 1.78722 12.6211 1.46868 12.9678 1.22838C13.3146 0.988092 13.713 0.832802 14.1309 0.775084L14.4964 0.750001H57.4964ZM46.7392 27.625H25.2428L35.9928 55.1701L46.7392 27.625ZM19.4772 27.625H8.79891L27.9733 49.3902L19.4772 27.625ZM63.1867 27.625H52.512L44.0267 49.3758L63.1867 27.625ZM25.1461 6.125H16.0946L7.35841 22.25H19.9861L25.1461 6.125ZM41.1994 6.125H30.7898L25.6262 22.25H46.3558L41.1958 6.125H41.1994ZM55.8911 6.125H46.8432L52.0032 22.25H64.6237L55.8947 6.125H55.8911Z" fill="#231F20"/>
</svg>
